<svg width="170" height="61" viewBox="0 0 170 61" fill="none" xmlns="http://www.w3.org/2000/svg">
<path fill-rule="evenodd" clip-rule="evenodd" d="M34.9744 18.0735C34.7862 17.864 29.655 19.1486 25.7875 23.8966C24.5825 25.3759 25.5136 21.6253 25.5613 21.4332C27.578 13.3097 40.1886 15.4798 39.9979 16.2883C39.791 17.165 37.4054 23.8242 33.1059 25.6885C29.3282 27.3266 26.9173 25.9816 26.6265 26.3278C26.1521 26.8926 24.8339 29.9629 25.2927 30.3851C26.9255 31.8877 29.5348 33.884 32.4712 38.7133C38.4592 48.5614 31.987 59.0889 32.6641 56.4641C33.5441 53.0527 33.3825 44.2398 24.4055 36.3204C13.2228 26.4553 -4.2007 17.8602 0.91984 0.981668C0.968088 0.822576 1.44586 -0.949138 1.39573 0.692226C1.34035 2.50578 2.51031 7.12424 4.20248 10.0117C7.77945 16.1152 10.7989 18.4944 23.7963 29.0668C24.1205 29.3305 25.1622 24.9456 29.8894 21.1016C32.4822 18.9934 34.8865 18.2049 34.9887 18.1593C34.9839 18.1307 34.9792 18.102 34.9744 18.0734L34.9744 18.0735Z" fill="#016630"/>
<path fill-rule="evenodd" clip-rule="evenodd" d="M2.02981 60.7477C2.02578 60.7305 1.24785 56.3831 2.36965 52.2545C5.2208 41.7616 16.5854 40.6315 12.2669 30.9712C11.9597 30.2839 11.8126 30.1872 12.01 30.156C12.0896 30.1434 17.2216 34.3728 17.6714 34.7435C21.5444 37.9354 25.0569 42.0787 24.4318 42.1583C17.2856 43.0695 3.71799 48.2485 2.24092 60.4938C2.21634 60.6976 2.23163 60.7412 2.02972 60.7477L2.02981 60.7477Z" fill="#016630"/>
<path fill-rule="evenodd" clip-rule="evenodd" d="M17.0564 17.041C10.0801 15.2062 12.2889 6.74696 17.2491 6.24906C25.3244 5.43845 25.6772 17.9157 17.0564 17.041Z" fill="#016630"/>
<path d="M42.26 37.8738C41.8467 37.8738 41.64 37.6738 41.64 37.2738V24.4738C41.64 24.0738 41.8467 23.8738 42.26 23.8738H45.36C46.9733 23.8738 48.2067 24.4404 49.06 25.5738C49.9267 26.6938 50.36 28.4471 50.36 30.8338C50.36 33.2204 49.9267 34.9938 49.06 36.1538C48.2067 37.3004 46.9733 37.8738 45.36 37.8738H42.26ZM43.44 36.3538H45.36C46.4533 36.3538 47.2533 35.9071 47.76 35.0138C48.28 34.1204 48.54 32.7271 48.54 30.8338C48.54 28.9671 48.28 27.5938 47.76 26.7138C47.2533 25.8338 46.4533 25.3938 45.36 25.3938H43.44V36.3538ZM55.9314 37.9938C54.6781 37.9938 53.7181 37.5404 53.0514 36.6338C52.3981 35.7271 52.0714 34.4138 52.0714 32.6938C52.0714 30.9604 52.3981 29.6271 53.0514 28.6938C53.7181 27.7604 54.6781 27.2938 55.9314 27.2938C57.1714 27.2938 58.1114 27.7604 58.7514 28.6938C59.4047 29.6138 59.7314 30.9471 59.7314 32.6938C59.7314 34.4271 59.4114 35.7471 58.7714 36.6538C58.1314 37.5471 57.1847 37.9938 55.9314 37.9938ZM55.8914 36.5538C56.5981 36.5538 57.1181 36.2404 57.4514 35.6138C57.7981 34.9738 57.9714 33.9871 57.9714 32.6538C57.9714 31.3204 57.7981 30.3338 57.4514 29.6938C57.1181 29.0538 56.5981 28.7338 55.8914 28.7338C55.1714 28.7338 54.6447 29.0538 54.3114 29.6938C53.9914 30.3204 53.8314 31.3071 53.8314 32.6538C53.8314 33.9871 53.9914 34.9738 54.3114 35.6138C54.6447 36.2404 55.1714 36.5538 55.8914 36.5538ZM62.8059 37.9138C62.5126 37.9138 62.3059 37.8738 62.1859 37.7938C62.0793 37.7138 62.0259 37.6071 62.0259 37.4738V30.4138C62.0259 29.5871 61.9926 28.9871 61.9259 28.6138C61.8593 28.2271 61.8259 27.9671 61.8259 27.8338C61.8259 27.6871 61.9659 27.5871 62.2459 27.5338C62.5259 27.4671 62.7726 27.4338 62.9859 27.4338C63.1726 27.4338 63.2993 27.5338 63.3659 27.7338C63.4459 27.9338 63.5326 28.2871 63.6259 28.7938C63.9459 28.3271 64.3193 27.9604 64.7459 27.6938C65.1726 27.4271 65.6459 27.2938 66.1659 27.2938C66.6326 27.2938 67.0926 27.4138 67.5459 27.6538C67.9993 27.8938 68.3193 28.3071 68.5059 28.8938C68.8126 28.4138 69.1859 28.0271 69.6259 27.7338C70.0659 27.4404 70.5526 27.2938 71.0859 27.2938C71.5259 27.2938 71.9393 27.3871 72.3259 27.5738C72.7126 27.7604 73.0193 28.0538 73.2459 28.4538C73.4859 28.8538 73.6059 29.3804 73.6059 30.0338V37.4738C73.6059 37.6071 73.5459 37.7138 73.4259 37.7938C73.3193 37.8738 73.1193 37.9138 72.8259 37.9138H72.6659C72.3726 37.9138 72.1659 37.8738 72.0459 37.7938C71.9393 37.7138 71.8859 37.6071 71.8859 37.4738V30.3738C71.8859 29.8671 71.7726 29.4738 71.5459 29.1938C71.3193 28.9004 70.9726 28.7538 70.5059 28.7538C70.0526 28.7538 69.6593 28.9204 69.3259 29.2538C69.0059 29.5738 68.7859 29.8938 68.6659 30.2138C68.6659 30.2538 68.6659 30.3004 68.6659 30.3538C68.6659 30.3938 68.6659 30.4338 68.6659 30.4738V37.4738C68.6659 37.6071 68.6059 37.7138 68.4859 37.7938C68.3793 37.8738 68.1793 37.9138 67.8859 37.9138H67.7259C67.4326 37.9138 67.2259 37.8738 67.1059 37.7938C66.9993 37.7138 66.9459 37.6071 66.9459 37.4738V30.3738C66.9459 29.8671 66.8326 29.4738 66.6059 29.1938C66.3926 28.9004 66.0526 28.7538 65.5859 28.7538C65.2526 28.7538 64.9526 28.8404 64.6859 29.0138C64.4326 29.1738 64.2259 29.3671 64.0659 29.5938C63.9059 29.8071 63.7993 29.9938 63.7459 30.1538V37.4738C63.7459 37.6071 63.6859 37.7138 63.5659 37.7938C63.4593 37.8738 63.2593 37.9138 62.9659 37.9138H62.8059ZM77.2005 37.9138C76.9071 37.9138 76.7005 37.8738 76.5805 37.7938C76.4738 37.7138 76.4205 37.6071 76.4205 37.4738V27.8138C76.4205 27.6671 76.4738 27.5604 76.5805 27.4938C76.7005 27.4138 76.9071 27.3738 77.2005 27.3738H77.3605C77.6538 27.3738 77.8538 27.4138 77.9605 27.4938C78.0805 27.5604 78.1405 27.6671 78.1405 27.8138V37.4738C78.1405 37.6071 78.0805 37.7138 77.9605 37.7938C77.8538 37.8738 77.6538 37.9138 77.3605 37.9138H77.2005ZM76.6005 26.3538C76.3071 26.3538 76.1605 26.2671 76.1605 26.0938C76.1605 26.0271 76.1805 25.9338 76.2205 25.8138C76.2738 25.6938 76.3271 25.5738 76.3805 25.4538L76.9805 24.0338C77.0471 23.8604 77.1671 23.7338 77.3405 23.6538C77.5138 23.5604 77.8071 23.5138 78.2205 23.5138C78.7938 23.5138 79.0805 23.6204 79.0805 23.8338C79.0805 23.9271 79.0338 24.0338 78.9405 24.1538C78.8471 24.2604 78.7138 24.4338 78.5405 24.6738L77.6605 25.8738C77.4871 26.1004 77.3338 26.2404 77.2005 26.2938C77.0671 26.3338 76.8671 26.3538 76.6005 26.3538ZM81.8098 37.9138C81.5165 37.9138 81.3098 37.8738 81.1898 37.7938C81.0832 37.7138 81.0298 37.6071 81.0298 37.4738V30.4138C81.0298 29.5871 80.9965 28.9871 80.9298 28.6138C80.8632 28.2271 80.8298 27.9671 80.8298 27.8338C80.8298 27.6871 80.9698 27.5871 81.2498 27.5338C81.5298 27.4671 81.7765 27.4338 81.9898 27.4338C82.1765 27.4338 82.3032 27.5338 82.3698 27.7338C82.4498 27.9338 82.5365 28.2871 82.6298 28.7938C82.9632 28.3271 83.3498 27.9604 83.7898 27.6938C84.2432 27.4271 84.7365 27.2938 85.2698 27.2938C85.7365 27.2938 86.1698 27.3871 86.5698 27.5738C86.9698 27.7604 87.2898 28.0538 87.5298 28.4538C87.7832 28.8538 87.9098 29.3804 87.9098 30.0338V37.4738C87.9098 37.6071 87.8498 37.7138 87.7298 37.7938C87.6232 37.8738 87.4232 37.9138 87.1298 37.9138H86.9698C86.6765 37.9138 86.4698 37.8738 86.3498 37.7938C86.2432 37.7138 86.1898 37.6071 86.1898 37.4738V30.3738C86.1898 29.8671 86.0632 29.4738 85.8098 29.1938C85.5698 28.9004 85.1965 28.7538 84.6898 28.7538C84.3432 28.7538 84.0298 28.8404 83.7498 29.0138C83.4698 29.1738 83.2432 29.3671 83.0698 29.5938C82.9098 29.8071 82.8032 29.9938 82.7498 30.1538V37.4738C82.7498 37.6071 82.6898 37.7138 82.5698 37.7938C82.4632 37.8738 82.2632 37.9138 81.9698 37.9138H81.8098ZM91.5169 37.9138C91.2235 37.9138 91.0169 37.8738 90.8969 37.7938C90.7902 37.7138 90.7369 37.6071 90.7369 37.4738V27.8138C90.7369 27.6671 90.7902 27.5604 90.8969 27.4938C91.0169 27.4138 91.2235 27.3738 91.5169 27.3738H91.6769C91.9702 27.3738 92.1702 27.4138 92.2769 27.4938C92.3969 27.5604 92.4569 27.6671 92.4569 27.8138V37.4738C92.4569 37.6071 92.3969 37.7138 92.2769 37.7938C92.1702 37.8738 91.9702 37.9138 91.6769 37.9138H91.5169ZM91.5969 25.9738C91.2769 25.9738 91.0502 25.9338 90.9169 25.8538C90.7835 25.7738 90.7169 25.6671 90.7169 25.5338V24.3338C90.7169 24.2004 90.7835 24.0938 90.9169 24.0138C91.0502 23.9338 91.2769 23.8938 91.5969 23.8938C91.9169 23.8938 92.1435 23.9338 92.2769 24.0138C92.4102 24.0804 92.4769 24.1871 92.4769 24.3338V25.5338C92.4769 25.6671 92.4102 25.7738 92.2769 25.8538C92.1435 25.9338 91.9169 25.9738 91.5969 25.9738ZM98.6463 37.9938C97.3929 37.9938 96.4329 37.5404 95.7663 36.6338C95.1129 35.7271 94.7863 34.4138 94.7863 32.6938C94.7863 30.9604 95.1129 29.6271 95.7663 28.6938C96.4329 27.7604 97.3929 27.2938 98.6463 27.2938C99.8863 27.2938 100.826 27.7604 101.466 28.6938C102.12 29.6138 102.446 30.9471 102.446 32.6938C102.446 34.4271 102.126 35.7471 101.486 36.6538C100.846 37.5471 99.8996 37.9938 98.6463 37.9938ZM98.6063 36.5538C99.3129 36.5538 99.8329 36.2404 100.166 35.6138C100.513 34.9738 100.686 33.9871 100.686 32.6538C100.686 31.3204 100.513 30.3338 100.166 29.6938C99.8329 29.0538 99.3129 28.7338 98.6063 28.7338C97.8863 28.7338 97.3596 29.0538 97.0263 29.6938C96.7063 30.3204 96.5462 31.3071 96.5462 32.6538C96.5462 33.9871 96.7063 34.9738 97.0263 35.6138C97.3596 36.2404 97.8863 36.5538 98.6063 36.5538ZM112.075 37.9938C110.302 37.9938 108.988 37.4138 108.135 36.2538C107.295 35.0938 106.875 33.2871 106.875 30.8338C106.875 28.4204 107.308 26.6404 108.175 25.4938C109.042 24.3338 110.348 23.7538 112.095 23.7538C112.482 23.7538 112.848 23.7938 113.195 23.8738C113.555 23.9404 113.862 24.0271 114.115 24.1338C114.342 24.2138 114.455 24.3604 114.455 24.5738C114.455 24.7738 114.415 24.9871 114.335 25.2138C114.268 25.4271 114.162 25.5338 114.015 25.5338C113.842 25.5338 113.608 25.4938 113.315 25.4138C113.035 25.3204 112.628 25.2738 112.095 25.2738C110.895 25.2738 110.028 25.7138 109.495 26.5938C108.962 27.4604 108.695 28.8738 108.695 30.8338C108.695 32.8204 108.962 34.2604 109.495 35.1538C110.028 36.0338 110.888 36.4738 112.075 36.4738C112.702 36.4738 113.188 36.4071 113.535 36.2738C113.882 36.1271 114.115 36.0538 114.235 36.0538C114.382 36.0538 114.495 36.1671 114.575 36.3938C114.655 36.6204 114.695 36.8471 114.695 37.0738C114.695 37.1404 114.675 37.2138 114.635 37.2938C114.595 37.3604 114.508 37.4271 114.375 37.4938C114.095 37.6271 113.755 37.7471 113.355 37.8538C112.968 37.9471 112.542 37.9938 112.075 37.9938ZM119.779 37.9938C118.526 37.9938 117.566 37.5404 116.899 36.6338C116.246 35.7271 115.919 34.4138 115.919 32.6938C115.919 30.9604 116.246 29.6271 116.899 28.6938C117.566 27.7604 118.526 27.2938 119.779 27.2938C121.019 27.2938 121.959 27.7604 122.599 28.6938C123.252 29.6138 123.579 30.9471 123.579 32.6938C123.579 34.4271 123.259 35.7471 122.619 36.6538C121.979 37.5471 121.032 37.9938 119.779 37.9938ZM119.739 36.5538C120.446 36.5538 120.966 36.2404 121.299 35.6138C121.646 34.9738 121.819 33.9871 121.819 32.6538C121.819 31.3204 121.646 30.3338 121.299 29.6938C120.966 29.0538 120.446 28.7338 119.739 28.7338C119.019 28.7338 118.492 29.0538 118.159 29.6938C117.839 30.3204 117.679 31.3071 117.679 32.6538C117.679 33.9871 117.839 34.9738 118.159 35.6138C118.492 36.2404 119.019 36.5538 119.739 36.5538ZM126.674 37.9138C126.14 37.9138 125.874 37.7671 125.874 37.4738V30.4138C125.874 29.5871 125.84 28.9871 125.774 28.6138C125.707 28.2271 125.674 27.9671 125.674 27.8338C125.674 27.6871 125.814 27.5871 126.094 27.5338C126.374 27.4671 126.62 27.4338 126.834 27.4338C127.02 27.4338 127.147 27.5338 127.214 27.7338C127.294 27.9204 127.38 28.2671 127.474 28.7738C127.82 28.3071 128.22 27.9471 128.674 27.6938C129.127 27.4271 129.56 27.2938 129.974 27.2938C130.2 27.2938 130.354 27.3471 130.434 27.4538C130.514 27.5604 130.554 27.7204 130.554 27.9338C130.554 28.2271 130.514 28.4871 130.434 28.7138C130.354 28.9271 130.254 29.0338 130.134 29.0338C130.04 29.0338 129.927 29.0204 129.794 28.9938C129.674 28.9538 129.487 28.9338 129.234 28.9338C128.86 28.9338 128.52 29.0538 128.214 29.2938C127.907 29.5204 127.7 29.8071 127.594 30.1538V37.4738C127.594 37.7671 127.314 37.9138 126.754 37.9138H126.674ZM132.532 42.0338C132.025 42.0338 131.772 41.8871 131.772 41.5938V30.4138C131.772 29.5871 131.739 28.9871 131.672 28.6138C131.605 28.2271 131.572 27.9671 131.572 27.8338C131.572 27.6871 131.712 27.5871 131.992 27.5338C132.272 27.4671 132.519 27.4338 132.732 27.4338C132.905 27.4338 133.025 27.5204 133.092 27.6938C133.172 27.8671 133.259 28.1804 133.352 28.6338C133.672 28.1671 134.039 27.8271 134.452 27.6138C134.879 27.4004 135.319 27.2938 135.772 27.2938C136.425 27.2938 136.985 27.5204 137.452 27.9738C137.919 28.4138 138.279 29.0338 138.532 29.8338C138.799 30.6204 138.932 31.5338 138.932 32.5738C138.932 34.3071 138.625 35.6471 138.012 36.5938C137.399 37.5271 136.599 37.9938 135.612 37.9938C135.119 37.9938 134.705 37.9004 134.372 37.7138C134.052 37.5138 133.759 37.2671 133.492 36.9738V41.5938C133.492 41.8871 133.245 42.0338 132.752 42.0338H132.532ZM135.172 36.5138C135.852 36.5138 136.352 36.1738 136.672 35.4938C137.005 34.8138 137.172 33.8338 137.172 32.5538C137.172 31.3538 137.019 30.4204 136.712 29.7538C136.419 29.0871 135.965 28.7538 135.352 28.7538C134.659 28.7538 134.039 29.2138 133.492 30.1338V35.6138C133.959 36.2138 134.519 36.5138 135.172 36.5138ZM144.545 37.9938C143.291 37.9938 142.331 37.5404 141.665 36.6338C141.011 35.7271 140.685 34.4138 140.685 32.6938C140.685 30.9604 141.011 29.6271 141.665 28.6938C142.331 27.7604 143.291 27.2938 144.545 27.2938C145.785 27.2938 146.725 27.7604 147.365 28.6938C148.018 29.6138 148.345 30.9471 148.345 32.6938C148.345 34.4271 148.025 35.7471 147.385 36.6538C146.745 37.5471 145.798 37.9938 144.545 37.9938ZM144.505 36.5538C145.211 36.5538 145.731 36.2404 146.065 35.6138C146.411 34.9738 146.585 33.9871 146.585 32.6538C146.585 31.3204 146.411 30.3338 146.065 29.6938C145.731 29.0538 145.211 28.7338 144.505 28.7338C143.785 28.7338 143.258 29.0538 142.925 29.6938C142.605 30.3204 142.445 31.3071 142.445 32.6538C142.445 33.9871 142.605 34.9738 142.925 35.6138C143.258 36.2404 143.785 36.5538 144.505 36.5538ZM151.439 37.9138C150.906 37.9138 150.639 37.7671 150.639 37.4738V30.4138C150.639 29.5871 150.606 28.9871 150.539 28.6138C150.473 28.2271 150.439 27.9671 150.439 27.8338C150.439 27.6871 150.579 27.5871 150.859 27.5338C151.139 27.4671 151.386 27.4338 151.599 27.4338C151.786 27.4338 151.913 27.5338 151.979 27.7338C152.059 27.9204 152.146 28.2671 152.239 28.7738C152.586 28.3071 152.986 27.9471 153.439 27.6938C153.893 27.4271 154.326 27.2938 154.739 27.2938C154.966 27.2938 155.119 27.3471 155.199 27.4538C155.279 27.5604 155.319 27.7204 155.319 27.9338C155.319 28.2271 155.279 28.4871 155.199 28.7138C155.119 28.9271 155.019 29.0338 154.899 29.0338C154.806 29.0338 154.693 29.0204 154.559 28.9938C154.439 28.9538 154.253 28.9338 153.999 28.9338C153.626 28.9338 153.286 29.0538 152.979 29.2938C152.673 29.5204 152.466 29.8071 152.359 30.1538V37.4738C152.359 37.7671 152.079 37.9138 151.519 37.9138H151.439ZM158.327 37.9938C157.474 37.9938 156.787 37.7338 156.267 37.2138C155.76 36.6804 155.507 35.9071 155.507 34.8938C155.507 34.0938 155.667 33.4538 155.987 32.9738C156.32 32.4804 156.747 32.1138 157.267 31.8738C157.8 31.6204 158.38 31.4538 159.007 31.3738C159.634 31.2938 160.247 31.2538 160.847 31.2538V30.2938C160.847 29.8804 160.72 29.5204 160.467 29.2138C160.227 28.8938 159.787 28.7338 159.147 28.7338C158.654 28.7338 158.2 28.7871 157.787 28.8938C157.387 29.0004 157.06 29.1138 156.807 29.2338C156.554 29.3404 156.387 29.3938 156.307 29.3938C156.174 29.3938 156.067 29.2671 155.987 29.0138C155.907 28.7604 155.867 28.5538 155.867 28.3938C155.867 28.2738 156.034 28.1271 156.367 27.9538C156.7 27.7804 157.12 27.6271 157.627 27.4938C158.134 27.3604 158.647 27.2938 159.167 27.2938C160.234 27.2938 161.067 27.5604 161.667 28.0938C162.267 28.6271 162.567 29.3671 162.567 30.3138V34.9138C162.567 35.7271 162.6 36.3271 162.667 36.7138C162.734 37.0871 162.767 37.3204 162.767 37.4138C162.767 37.5738 162.627 37.6938 162.347 37.7738C162.067 37.8538 161.82 37.8938 161.607 37.8938C161.434 37.8938 161.307 37.8004 161.227 37.6138C161.16 37.4138 161.08 37.0804 160.987 36.6138C160.654 37.0404 160.267 37.3804 159.827 37.6338C159.4 37.8738 158.9 37.9938 158.327 37.9938ZM158.647 36.5738C159.114 36.5738 159.527 36.4604 159.887 36.2338C160.26 36.0071 160.58 35.6871 160.847 35.2738V32.6738C159.54 32.6738 158.614 32.8271 158.067 33.1338C157.534 33.4271 157.267 34.0071 157.267 34.8738C157.267 36.0071 157.727 36.5738 158.647 36.5738ZM167.644 37.9938C167.364 37.9938 167.051 37.9338 166.704 37.8138C166.371 37.6938 166.077 37.4604 165.824 37.1138C165.571 36.7538 165.444 36.2338 165.444 35.5538V23.2738C165.444 23.1271 165.497 23.0204 165.604 22.9538C165.724 22.8738 165.931 22.8338 166.224 22.8338H166.384C166.677 22.8338 166.877 22.8738 166.984 22.9538C167.104 23.0204 167.164 23.1271 167.164 23.2738V35.3538C167.164 35.8204 167.211 36.1404 167.304 36.3138C167.411 36.4738 167.611 36.5538 167.904 36.5538C168.144 36.5538 168.317 36.5404 168.424 36.5138C168.544 36.4738 168.637 36.4538 168.704 36.4538C168.797 36.4538 168.864 36.5204 168.904 36.6538C168.957 36.7871 168.991 36.9338 169.004 37.0938C169.017 37.2404 169.024 37.3471 169.024 37.4138C169.024 37.5471 168.944 37.6604 168.784 37.7538C168.624 37.8338 168.437 37.8938 168.224 37.9338C168.011 37.9738 167.817 37.9938 167.644 37.9938Z" fill="#016630"/>
</svg>
